<svg width="22" height="22" viewBox="0 0 22 22" fill="none" xmlns="http://www.w3.org/2000/svg">
<g id="Layer_1" clip-path="url(#clip0_1986_97)">
<path id="Vector" d="M11 5V21M11 5H7.46C6.94 5 6.44 4.79 6.07 4.41C5.7 4.03 5.49 3.53 5.49 3C5.49 2.47 5.7 1.96 6.07 1.59C6.44 1.21 6.94 1 7.46 1C10.21 1 11 5 11 5ZM11 5H14.54C15.06 5 15.56 4.79 15.93 4.41C16.3 4.03 16.51 3.53 16.51 3C16.51 2.47 16.3 1.96 15.93 1.59C15.56 1.21 15.06 1 14.54 1C11.79 1 11 5 11 5ZM19 10V17.8C19 18.92 19 19.48 18.78 19.91C18.59 20.29 18.28 20.59 17.91 20.78C17.48 21 16.92 21 15.8 21H6.2C5.08 21 4.52 21 4.09 20.78C3.71 20.59 3.41 20.28 3.22 19.91C3 19.48 3 18.92 3 17.8V10M1 6.6V8.4C1 8.96 1 9.24 1.11 9.45C1.21 9.64 1.36 9.79 1.55 9.89C1.76 10 2.04 10 2.6 10H19.4C19.96 10 20.24 10 20.45 9.89C20.64 9.79 20.79 9.64 20.89 9.45C21 9.24 21 8.96 21 8.4V6.6C21 6.04 21 5.76 20.89 5.55C20.79 5.36 20.64 5.21 20.45 5.11C20.24 5 19.96 5 19.4 5H2.6C2.04 5 1.76 5 1.55 5.11C1.36 5.21 1.21 5.36 1.11 5.55C1 5.76 1 6.04 1 6.6Z" stroke="white" stroke-width="2" stroke-linecap="round" stroke-linejoin="round"/>
</g>
<defs>
<clipPath id="clip0_1986_97">
<rect width="22" height="22" fill="white"/>
</clipPath>
</defs>
</svg>
