<svg width="25" height="24" viewBox="0 0 25 24" fill="none" xmlns="http://www.w3.org/2000/svg">
<g id="pencil-01">
<path id="Icon" d="M2.75 21.4998L8.29927 19.3655C8.65421 19.229 8.83168 19.1607 8.99772 19.0716C9.1452 18.9924 9.2858 18.901 9.41804 18.7984C9.56692 18.6829 9.70137 18.5484 9.97028 18.2795L21.25 6.99982C22.3546 5.89525 22.3546 4.10438 21.25 2.99981C20.1455 1.89525 18.3546 1.89524 17.25 2.99981L5.97028 14.2795C5.70138 14.5484 5.56692 14.6829 5.45139 14.8318C5.34877 14.964 5.2574 15.1046 5.17823 15.2521C5.08911 15.4181 5.02085 15.5956 4.88433 15.9506L2.75 21.4998ZM2.75 21.4998L4.80812 16.1488C4.9554 15.7659 5.02903 15.5744 5.15534 15.4867C5.26572 15.4101 5.4023 15.3811 5.5343 15.4063C5.68533 15.4351 5.83038 15.5802 6.12048 15.8703L8.37957 18.1294C8.66967 18.4195 8.81472 18.5645 8.84356 18.7155C8.86877 18.8475 8.83979 18.9841 8.76314 19.0945C8.67545 19.2208 8.48399 19.2944 8.10107 19.4417L2.75 21.4998Z" stroke="#8D8F94FF" stroke-width="2" stroke-linecap="round" stroke-linejoin="round"/>
</g>
</svg>
